<?xml version="1.0" encoding="UTF-8" standalone="no"?>
<svg
   xmlns:dc="http://purl.org/dc/elements/1.1/"
   xmlns:cc="http://creativecommons.org/ns#"
   xmlns:rdf="http://www.w3.org/1999/02/22-rdf-syntax-ns#"
   xmlns:svg="http://www.w3.org/2000/svg"
   xmlns="http://www.w3.org/2000/svg"
   xmlns:sodipodi="http://sodipodi.sourceforge.net/DTD/sodipodi-0.dtd"
   xmlns:inkscape="http://www.inkscape.org/namespaces/inkscape"
   width="210mm"
   height="297mm"
   viewBox="0 0 210 297"
   version="1.1"
   id="svg8"
   inkscape:version="1.0.2 (e86c8708, 2021-01-15)"
   sodipodi:docname="oregon.svg">
  <defs
     id="defs2" />
  <sodipodi:namedview
     id="base"
     pagecolor="#ffffff"
     bordercolor="#666666"
     borderopacity="1.0"
     inkscape:pageopacity="0.0"
     inkscape:pageshadow="2"
     inkscape:zoom="7.6312445"
     inkscape:cx="418.83273"
     inkscape:cy="417.99299"
     inkscape:document-units="mm"
     inkscape:current-layer="layer1"
     inkscape:document-rotation="0"
     showgrid="false"
     inkscape:window-width="1718"
     inkscape:window-height="1092"
     inkscape:window-x="0"
     inkscape:window-y="0"
     inkscape:window-maximized="0" />
  <metadata
     id="metadata5">
    <rdf:RDF>
      <cc:Work
         rdf:about="">
        <dc:format>image/svg+xml</dc:format>
        <dc:type
           rdf:resource="http://purl.org/dc/dcmitype/StillImage" />
        <dc:title />
      </cc:Work>
    </rdf:RDF>
  </metadata>
  <g
     inkscape:label="Layer 1"
     inkscape:groupmode="layer"
     id="layer1">
    <path
       style="fill:#8c8c8c;fill-opacity:1;stroke-width:0.336378"
       d="m 196.46169,190.30361 c 0.24043,-0.0981 0.5277,-0.0861 0.63838,0.0268 0.11067,0.11289 -0.0861,0.19318 -0.43715,0.17843 -0.38801,-0.0163 -0.46693,-0.0968 -0.20123,-0.20524 z"
       id="path1893" />
    <path
       style="fill:#8c8c8c;fill-opacity:1;stroke-width:0.336378"
       d="m 197.8564,191.01456 c 0,-0.0308 0.20732,-0.23146 0.46071,-0.44596 0.35408,-0.29973 0.50386,-0.27527 0.64718,0.1057 0.12692,0.33733 -0.0203,0.4798 -0.4607,0.44596 -0.35595,-0.0274 -0.64719,-0.0749 -0.64719,-0.1057 z"
       id="path1891" />
    <path
       style="fill:#8c8c8c;fill-opacity:1;stroke-width:0.336378"
       d="m 16.002141,190.77783 c 0,-0.2405 0.301264,-0.46043 0.669476,-0.48872 0.582391,-0.0447 0.607148,0.0121 0.190323,0.43728 -0.592895,0.60475 -0.859799,0.62072 -0.859799,0.0514 z"
       id="path1889" />
    <path
       style="fill:#8c8c8c;fill-opacity:1;stroke-width:0.336378"
       d="m 19.502696,191.20958 c 0.115063,-0.18989 0.348728,-0.25731 0.519256,-0.14981 0.461978,0.29122 0.375836,0.49507 -0.209204,0.49507 -0.28559,0 -0.425114,-0.15536 -0.310052,-0.34526 z"
       id="path1881" />
    <path
       style="fill:#8c8c8c;fill-opacity:1;stroke-width:0.336378"
       d="m 18.271156,191.32278 c 0.240433,-0.0981 0.527702,-0.0861 0.638378,0.0268 0.110675,0.11289 -0.08604,0.19318 -0.43715,0.17843 -0.388003,-0.0163 -0.466926,-0.0968 -0.201228,-0.20525 z"
       id="path1879" />
    <path
       style="fill:#8c8c8c;fill-opacity:1;stroke-width:0.336378"
       d="m 114.60521,110.01312 c 1.37971,-0.75316 0.46448,-1.40369 -2.97064,-2.11151 -1.70457,-0.35123 -1.81888,-0.32982 -2.40732,0.45092 -0.81993,1.08787 -0.789,1.6224 0.11681,2.0189 0.8826,0.38634 4.3267,0.15178 5.26115,-0.35831 z"
       id="path1873" />
    <path
       style="fill:#8c8c8c;fill-opacity:1;stroke-width:0.336378"
       d="m 111.92319,126.68489 c 0.63998,-0.54114 1.0869,-1.06213 0.99316,-1.15774 -0.0937,-0.0956 -0.94726,-0.27896 -1.8967,-0.40743 l -1.72625,-0.23356 0.11644,1.31551 c 0.1435,1.62135 0.0738,1.48711 0.76688,1.47624 0.32058,-0.005 1.10649,-0.45188 1.74647,-0.99302 z"
       id="path1871" />
    <path
       style="fill:#8c8c8c;fill-opacity:1;stroke-width:0.336378"
       d="m 118.19189,130.48976 c -0.0667,-0.35857 -0.47291,-0.63717 -1.02362,-0.70201 -1.02755,-0.12097 -1.21419,0.40444 -0.33022,0.92959 0.89213,0.53001 1.47643,0.43178 1.35384,-0.22758 z"
       id="path1869" />
    <path
       style="fill:#8c8c8c;fill-opacity:1;stroke-width:0.336378"
       d="m 113.93286,130.42226 c -0.19105,-0.36411 -0.67931,-0.89917 -1.08503,-1.18903 -0.74264,-0.53055 -2.62182,-0.71882 -3.02904,-0.30347 -0.39976,0.40776 0.50867,1.13536 1.41752,1.13536 0.49212,0 1.1857,0.22445 1.54128,0.49878 0.97207,0.74993 1.58373,0.67494 1.15527,-0.14164 z"
       id="path1867" />
    <path
       style="fill:#8c8c8c;fill-opacity:1;stroke-width:0.336378"
       d="m 112.92452,136.13331 c 0.27478,0.0105 0.99262,0.12002 1.5952,0.24335 0.80889,0.16555 1.26649,0.0665 1.7486,-0.37853 0.80028,-0.73872 0.82543,-1.29221 0.0927,-2.03961 -0.46676,-0.47609 -0.62082,-0.49433 -0.92259,-0.1092 -1.31855,1.68278 -3.43065,1.16727 -4.30029,-1.0496 -0.60907,-1.55265 -1.0914,-1.7413 -1.519,-0.59414 -0.67036,1.79839 0.76628,4.5815 2.13232,4.13081 0.37042,-0.12221 0.89831,-0.2136 1.17309,-0.20308 z"
       id="path1865" />
    <path
       style="fill:#8c8c8c;fill-opacity:1;stroke-width:0.336378"
       d="m 102.77584,140.91997 c 0.11864,-0.19578 0.52166,-0.31044 0.89561,-0.25479 0.37396,0.0557 0.79295,-0.12812 0.9311,-0.40839 0.81336,-1.65012 1.08688,-2.39708 0.93464,-2.55237 -0.51618,-0.5265 -4.26999,2.38109 -4.26999,3.3074 0,0.39525 1.25998,0.31854 1.50864,-0.0919 z"
       id="path1863" />
    <path
       style="fill:#8c8c8c;fill-opacity:1;stroke-width:0.336378"
       d="m 106.53741,143.88065 c 0.0718,-0.37758 -0.11594,-0.56636 -0.56321,-0.56636 -0.85126,0 -1.27295,0.66226 -0.66961,1.05162 0.61479,0.39676 1.10154,0.20517 1.23282,-0.48526 z"
       id="path1861" />
    <path
       style="fill:#8c8c8c;fill-opacity:1;stroke-width:0.336378"
       d="m 106.59621,146.54165 c 0,-0.97154 -0.388,-1.09089 -1.02027,-0.31383 -0.36109,0.44377 -0.35381,0.58832 0.0425,0.8441 0.76328,0.49263 0.97779,0.3763 0.97779,-0.53027 z"
       id="path1859" />
    <path
       style="fill:#8c8c8c;fill-opacity:1;stroke-width:0.336378"
       d="m 114.7066,155.38609 c 0.58404,-0.4513 0.54907,-0.54593 -0.66613,-1.80241 l -1.28253,-1.32609 -1.58207,0.47407 c -0.87014,0.26073 -1.58206,0.66759 -1.58206,0.90413 0,0.23653 0.93674,0.82019 2.08166,1.29701 2.5512,1.06249 2.29278,1.02384 3.03113,0.45329 z"
       id="path1857" />
    <path
       style="fill:#8c8c8c;fill-opacity:1;stroke-width:0.336378"
       d="m 119.44333,161.97189 c 0.78917,-0.88946 0.367,-1.25427 -1.76606,-1.5261 -1.31279,-0.1673 -2.51922,-0.62969 -3.91268,-1.49963 -1.10806,-0.69176 -2.57472,-1.36491 -3.25925,-1.4959 -1.09413,-0.20936 -1.2446,-0.1575 -1.2446,0.4289 0,0.36688 0.0931,0.91453 0.20689,1.21699 0.23767,0.63171 1.80677,1.53861 2.6909,1.55526 0.32967,0.006 1.19893,0.43934 1.93167,0.96251 1.64634,1.17547 4.46081,1.36367 5.35313,0.35797 z"
       id="path1855" />
    <path
       style="fill:#8c8c8c;fill-opacity:1;stroke-width:0.336378"
       d="m 110.41148,162.59352 c -0.33394,-1.12738 -0.7625,-1.4762 -1.00892,-0.82118 -0.29396,0.78136 0.0625,1.58556 0.70284,1.58556 0.39726,0 0.47499,-0.19413 0.30608,-0.76438 z"
       id="path1853" />
    <path
       style="fill:#8c8c8c;fill-opacity:1;stroke-width:0.336378"
       d="m 101.8196,164.48667 c 1.34483,-0.68711 2.44514,-1.37505 2.44514,-1.52875 0,-0.33688 -1.4602,-0.37545 -1.78215,-0.0471 -0.12531,0.12781 -0.91333,0.26185 -1.75116,0.29786 -1.24363,0.0534 -1.7012,0.26413 -2.4922,1.14747 -0.53288,0.59509 -0.96888,1.14899 -0.96888,1.23088 0,0.5517 2.49865,-0.0527 4.54925,-1.10039 z"
       id="path1851" />
    <path
       style="fill:#8c8c8c;fill-opacity:1;stroke-width:0.336378"
       d="m 104.93088,176.24724 c 0,-0.17582 -0.22482,-0.31967 -0.4996,-0.31967 -0.51506,0 -0.66171,0.40086 -0.28661,0.78345 0.26609,0.27142 0.78621,-0.0354 0.78621,-0.46378 z"
       id="path1849" />
    <path
       id="path1847"
       style="fill:#8c8c8c;fill-opacity:1;stroke-width:1.27135"
       d="m 405.97852,359.76758 c -0.41827,-0.0424 -0.57618,0.43988 -0.57618,1.50195 0,1.23895 -1.19117,4.2174 -2.64648,6.61914 -0.66514,1.09774 -1.21062,2.34811 -1.63477,3.68555 l 0.125,1.10351 0.78516,0.26368 c 2.2469,-1.60662 3.08236,0.50292 3.40784,2.22728 l -2.35901,1.30983 -4.70743,3.09023 c -0.0758,2.45322 2.9698,0.43934 3.67567,2.57003 0.67158,2.02772 -1.31785,5.02724 -1.31785,5.02724 -0.37186,-0.23441 -10.73667,1.40545 -7.95128,5.02578 v 0 l 4.42003,0.53476 0.48633,1.26367 -0.0449,0.0742 c 0.18638,0.54121 5.07523,1.62524 5.23503,2.57476 0.32682,1.94204 -3.75678,4.00465 -3.30924,5.06391 0.84003,1.98834 -5.66774,7.39095 -8.10743,6.73047 -1.42703,-0.38638 -9.17299,7.35408 -8.27539,8.26953 0.33211,0.33876 1.82208,-0.0497 3.3125,-0.86328 2.16397,-1.18129 3.26463,-1.06481 5.45899,0.58008 8.90075,6.672 11.20337,8.27474 12.56445,8.74219 1.97798,0.67926 -1.17833,4.78906 -3.67773,4.78906 -0.9538,0 -1.73243,0.46786 -1.73242,1.03906 -10e-6,0.57124 -0.75359,2.08937 -1.67383,3.37305 -1.40489,1.95961 -2.12432,2.08622 -4.48633,0.79688 -2.18018,-1.19014 -3.22155,-1.18998 -4.625,-0.002 -1.05604,0.89405 -3.40245,1.20847 -5.63086,0.75391 -2.73989,-0.55895 -4.02554,-0.24189 -4.53906,1.12305 -0.39391,1.047 -1.72631,1.90429 -2.96289,1.90429 -1.23655,0 -2.57468,0.86598 -2.97266,1.92383 -0.75269,2.00069 2.64231,4.8387 7.58008,6.33789 1.49586,0.45415 3.63356,2.24835 4.75,3.98633 1.11643,1.73794 2.79652,3.16016 3.73437,3.16016 0.93778,0 2.35664,0.79935 3.15235,1.77734 1.15714,1.42212 0.77372,1.95008 -1.91602,2.63867 -1.8703,0.47879 -3.95255,0.25946 -4.69141,-0.49414 -2.15582,-2.19889 -3.34374,-1.56698 -3.34374,1.7793 0,3.06928 -2.00707,5.51835 -3.37696,4.12109 -0.38037,-0.38797 -1.0736,-2.61237 -1.54101,-4.94336 -0.76415,-3.81093 -1.28769,-4.23828 -5.20313,-4.23828 -4.30719,0 -4.35668,0.0638 -4.45117,5.7793 -0.11006,6.64048 -3.22168,8.5749 -6.38477,3.96875 -2.43976,-3.55291 -3.22272,-3.4058 -6.59179,1.24219 -3.44391,4.75124 -1.95096,7.6289 3.96093,7.6289 2.08906,0 4.46955,0.93497 5.28907,2.07813 1.28613,1.79387 1.86546,1.83851 4.23047,0.33203 2.15667,-1.37378 3.25069,-1.41799 5.14257,-0.21289 3.60548,2.2967 10.99691,0.61511 13.3418,-3.03516 1.53037,-2.38231 2.47031,-2.80258 4.13281,-1.84961 1.57274,0.90149 2.82973,0.5909 4.66992,-1.1543 1.38471,-1.31317 4.07455,-2.78362 5.97852,-3.26562 l 3.46289,-0.875 v 8.28516 c 0,9.64618 -1.55047,11.75387 -9.55664,12.99023 -3.98956,0.6161 -6.54406,0.10057 -11.33008,-2.28711 -5.5135,-2.75063 -6.47892,-2.88598 -8.96679,-1.26562 -1.53347,0.99874 -3.56978,1.81445 -4.5254,1.81445 -0.95555,0 -2.76244,1.15599 -4.01562,2.56836 -1.59969,1.80298 -3.87848,2.56836 -7.64648,2.56836 -7.57308,0 -9.34766,0.98602 -9.34766,5.1875 0,4.10925 2.06989,5.20415 10.05078,5.3164 2.78018,0.0392 5.05469,0.58019 5.05469,1.20313 0,0.62298 0.85013,1.13281 1.88867,1.13281 1.04905,0 1.88672,-1.1417 1.88672,-2.56836 0,-1.97302 0.83991,-2.56836 3.62305,-2.56836 1.9923,0 4.34825,-0.89296 5.23632,-1.98437 0.94916,-1.16652 2.44078,-1.62143 3.61719,-1.10352 1.10071,0.48458 3.27755,0.94438 4.83789,1.02149 1.56034,0.0772 2.87501,0.71957 2.92188,1.42578 0.1268,1.91297 3.85282,5.77734 5.57031,5.77734 0.8239,0 2.54351,-1.17817 3.82031,-2.61719 2.15618,-2.43019 2.40693,-2.4587 3.53516,-0.40234 2.35241,4.28753 2.00815,10.40111 -0.72656,12.875 -1.88032,1.70098 -2.74098,1.90362 -3.14063,0.73828 -0.98415,-2.86983 -3.7747,-1.69809 -5.38281,2.26172 -1.94823,4.79743 -6.02971,5.9932 -13.72656,4.01953 -9.33211,-2.39301 -22.77344,-2.85675 -22.77344,-0.78515 0,0.95368 0.54294,2.07676 1.20508,2.49414 0.66217,0.41741 0.88415,1.60589 0.49414,2.64257 -0.50911,1.35323 0.19525,1.88477 2.49804,1.88477 3.96703,0 5.20107,1.75703 2.71289,3.86328 -1.0309,0.87269 -1.875,2.37268 -1.875,3.33203 0,0.95936 -1.3588,2.09246 -3.01953,2.51758 -3.40569,0.87186 -4.78627,5.98027 -2.9707,10.98633 0.59717,1.64715 0.76226,4.30852 0.36719,5.91406 -0.59093,2.40151 -0.20643,2.91797 2.17187,2.91797 1.59001,0 4.14127,-0.89173 5.66797,-1.98242 3.15356,-2.25298 7.85352,-0.65504 7.85352,2.66992 0,1.33361 1.44524,1.88086 4.96289,1.88086 9.63163,0 7.9366,5.03466 -2,5.94141 -9.30373,0.84899 -14.29102,1.94014 -14.29102,3.12695 0,0.59025 -1.83509,2.82421 -4.07812,4.96289 l -4.07813,3.88672 4.39258,3.83008 c 4.96573,4.3285 11.54943,5.16455 15.94336,2.02539 2.36186,-1.68737 2.75386,-1.68737 3.38867,0 1.25042,3.32364 5.45951,2.06898 9.25586,-2.75782 3.29998,-4.19572 3.9524,-4.50965 6.49609,-3.12109 2.20604,1.20522 3.23207,1.20409 4.66602,-0.01 2.64325,-2.23752 3.46465,-0.70579 2.48242,4.63476 -0.57343,3.11762 -1.40883,4.44528 -2.52148,4.00977 -1.77457,-0.69457 -11.02372,3.67509 -16.68946,7.88476 -2.98567,2.21836 -3.205,2.81911 -1.70703,4.66016 1.33369,1.63891 3.01704,1.94172 7.50391,1.34765 5.3907,-0.71372 5.61862,-0.63006 3.3418,1.23438 -1.34397,1.10056 -4.01491,2.00195 -5.93555,2.00195 -2.10637,0 -5.24643,1.57194 -7.91406,3.96094 -4.1246,3.69385 -4.71987,3.85891 -8.83789,2.47266 -2.42854,-0.81752 -4.75385,-2.04514 -5.16797,-2.72852 -1.16296,-1.91936 -5.79607,0.11423 -9.51758,4.17773 -1.84951,2.01944 -4.38336,3.67188 -5.62891,3.67188 -1.44026,0 -0.33936,1.27402 3.02344,3.49805 4.53222,2.9975 5.28711,4.13092 5.28711,7.9414 0,4.48112 3.95033,10.38871 6.94727,10.38867 0.81055,0 2.50072,-1.15598 3.7539,-2.56835 2.36795,-2.66888 5.66406,-3.45981 5.66406,-1.35938 0,0.66452 -0.50968,1.52907 -1.13281,1.92188 -0.62309,0.3928 -1.13281,2.73922 -1.13281,5.21289 0,3.49164 0.51215,4.49804 2.28906,4.49804 1.25885,0 3.07459,0.30753 4.03516,0.6836 1.10774,0.43358 2.41124,-0.85814 3.56445,-3.53125 2.15452,-4.99401 6.2307,-5.66209 8.0957,-1.32617 1.67029,3.88314 5.68165,3.83764 5.68165,-0.0645 -10e-6,-3.26736 2.13638,-6.03515 4.6582,-6.03515 1.19527,0 1.62619,2.51147 1.60351,9.31054 l -0.0351,9.3086 -5.11133,2.40625 c -3.67888,1.73144 -6.63627,2.19319 -10.54688,1.64648 -3.90292,-0.54565 -5.85555,-0.24351 -6.92773,1.07422 -0.82114,1.00917 -2.7176,2.21014 -4.21289,2.66992 -1.49526,0.45978 -4.16515,2.21654 -5.93359,3.90234 -5.15494,4.91411 -16.65309,4.05175 -22.90235,-1.71679 -1.21292,-1.11954 -2.20508,-1.59064 -2.20508,-1.04688 0,0.54376 -1.39698,0.0565 -3.10351,-1.08398 -4.8658,-3.25191 -6.09913,-2.67458 -5.16211,2.41992 0.86925,4.72607 0.75548,4.84354 -7.4707,7.73828 -2.13132,0.75001 -1.64895,1.28043 3.14648,3.45899 3.11562,1.41543 7.95703,2.77298 10.75781,3.01562 2.80078,0.24261 6.46089,0.95827 8.13477,1.58984 2.91893,1.10136 2.94409,1.20206 0.57422,2.45508 -1.35908,0.71857 -4.59702,1.69771 -7.19336,2.17578 -2.59635,0.47804 -4.72071,1.35348 -4.72071,1.94532 0,2.3904 5.85405,2.40914 11.11133,0.0371 6.67344,-3.01096 6.51367,-2.99448 6.51367,-0.61719 0,1.04303 -1.41561,2.8432 -3.14648,4 -1.73091,1.1568 -3.14844,2.90279 -3.14844,3.88086 0,2.30441 3.7369,2.21372 6.82032,-0.16602 1.77839,-1.37257 2.85281,-1.49453 4.07617,-0.45898 0.91343,0.77329 2.61422,1.03412 3.77929,0.57812 1.16512,-0.45592 2.44616,-0.28759 2.84766,0.375 0.40154,0.66259 3.78804,1.40428 7.52539,1.64844 l 6.79492,0.44336 1.76367,-5.32227 c 1.07464,-3.24449 2.72168,-5.58116 4.21875,-5.98046 1.42175,-0.3792 2.45704,-1.75572 2.45704,-3.26954 0,-2.30736 0.75193,-2.59794 6.39257,-2.46679 l 6.39454,0.14844 -0.79688,4.59374 c -0.43801,2.52651 -1.68319,5.17075 -2.76758,5.87696 -1.08442,0.7062 -4.31037,3.48696 -7.16992,6.17969 -4.18462,3.94038 -4.62384,4.73074 -2.24414,4.04687 2.61396,-0.75118 2.8539,-0.51871 2.06836,2.00586 -1.40394,4.51177 1.84166,1.70639 3.93359,-3.40039 0.9772,-2.38545 2.61916,-4.33789 3.64844,-4.33789 2.01872,0 2.32507,2.49878 1.08398,8.82812 -0.60941,3.10795 -1.44489,4.01172 -3.70312,4.01172 -1.6035,0 -3.26544,0.57899 -3.69336,1.28516 -1.39223,2.29772 -9.16774,1.47284 -10.97852,-1.16406 -2.33366,-3.39837 -12.89893,-5.03559 -13.97851,-2.16602 -0.42304,1.12437 -1.9197,2.04492 -3.32617,2.04492 -1.40644,0 -2.5586,0.51583 -2.5586,1.14649 0,1.96732 3.65599,2.68836 7.01758,1.38476 5.9156,-2.2941 8.08984,-1.62198 8.08985,2.49805 0,4.17948 2.0525,5.52715 5.30078,3.47852 1.67115,-1.054 3.05777,-0.67893 6.17773,1.67382 3.77556,2.84716 4.12035,2.89531 5.62891,0.79102 2.52192,-3.51791 4.29297,-1.12781 4.29297,5.79492 l 0.002,-0.002 v 6.34375 h 11.78906 11.79102 l -1.03516,-5.45703 c -0.56927,-3.00133 -1.05961,-11.66817 -1.08984,-19.25977 l -0.0547,-13.80273 h 3.51367 c 2.49494,0 5.10469,1.65305 8.9961,5.69726 5.49923,5.71537 11.57831,8.0768 18.71289,7.26953 1.59446,-0.18043 3.782,0.42032 4.86132,1.33399 1.07932,0.91366 3.76312,1.5021 5.96485,1.30859 2.75542,-0.24215 4.73526,0.47151 6.34961,2.29102 2.90925,3.27904 4.26976,3.26456 8.22265,-0.0899 3.03568,-2.57605 3.05445,-2.69751 0.70313,-4.45117 -1.32953,-0.99163 -2.99415,-1.80273 -3.69922,-1.80273 -0.70511,0 -3.62196,-2.59944 -6.48242,-5.77735 -3.52921,-3.92084 -6.22269,-5.77929 -8.37891,-5.77929 -1.74765,0 -4.66708,-1.19505 -6.48828,-2.65625 -2.96511,-2.37899 -4.34825,-2.56498 -13.22266,-1.77539 -6.8056,0.60551 -10.1822,0.4327 -10.77929,-0.55274 -0.47823,-0.78928 -2.75303,-1.43555 -5.05469,-1.43555 -3.55858,0 -4.28736,-0.52676 -4.875,-3.52929 -0.92462,-4.72456 3.18811,-8.76178 9.9707,-9.78516 4.17865,-0.63046 5.6017,-0.29124 7.4336,1.77344 1.24603,1.4044 2.7556,2.55469 3.35546,2.55469 0.59989,0 3.2973,1.48818 5.99415,3.30859 4.58358,3.09388 5.09827,3.1787 7.89648,1.30859 2.78162,-1.85899 3.15289,-1.81041 5.23828,0.67383 l 2.24414,2.67383 2.81641,-2.69922 c 3.42845,-3.2852 5.18834,-3.37475 8.83789,-0.45117 2.61226,2.09253 5.12127,2.36773 16.31445,1.79101 3.17299,-0.16348 3.40987,-0.43997 1.93555,-2.25195 -1.42753,-1.75442 -1.31897,-2.33321 0.7168,-3.85156 1.3178,-0.9829 2.92359,-1.78711 3.56835,-1.78711 0.64483,0 0.46932,-0.86157 -0.38867,-1.91602 -1.13805,-1.39869 -2.90538,-1.6991 -6.5332,-1.10742 -3.89223,0.63485 -5.73128,0.23817 -8.46875,-1.82617 -1.92355,-1.45054 -6.13466,-3.04028 -9.35742,-3.5332 -3.22277,-0.49297 -5.92416,-1.55289 -6.00391,-2.35547 -0.0798,-0.80255 -0.27844,-2.03794 -0.43945,-2.74414 -0.16105,-0.70621 -0.37697,-2.56057 -0.48242,-4.1211 -0.14948,-2.21178 -0.95572,-2.82074 -3.6543,-2.76367 -1.90401,0.0402 -6.26105,-0.63147 -9.68164,-1.49219 -4.62697,-1.16418 -6.79843,-1.1964 -8.48047,-0.125 -3.12881,1.99303 -10.56742,1.80623 -12.65039,-0.31835 -0.94874,-0.96771 -3.58797,-2.74134 -5.86328,-3.94141 -3.83441,-2.02243 -4.09314,-2.5605 -3.55078,-7.34961 1.21546,-10.73284 7.34452,-11.36458 11.90429,-1.22656 3.43567,7.63869 6.30311,9.16116 9.55079,5.07031 1.28503,-1.6187 4.12185,-3.5303 6.30468,-4.25 3.01962,-0.99557 4.87275,-3.07198 7.7461,-8.67773 2.6841,-5.23662 4.8259,-7.74042 7.40429,-8.65821 3.27398,-1.16534 3.55982,-1.72167 2.92579,-5.70703 -0.58031,-3.64739 -0.1937,-4.75754 2.2207,-6.37109 1.60773,-1.07452 4.39815,-2.33142 6.20117,-2.79297 1.80302,-0.46159 3.27734,-1.32219 3.27734,-1.91406 0,-1.3437 -12.95644,-10.20118 -14.92187,-10.20118 -2.03002,0 -1.79666,-3.23829 0.36523,-5.06835 0.99432,-0.84167 3.40134,-1.96466 5.34961,-2.4961 4.52051,-1.23307 5.19053,-4.71629 1.5293,-7.95508 -3.75451,-3.32133 -7.418,-4.16881 -11.37891,-2.63281 -2.51709,0.97614 -4.02501,0.71129 -6.875,-1.20508 -2.14461,-1.44208 -5.85687,-2.45911 -9,-2.46289 -2.94255,-0.005 -5.35156,-0.5868 -5.35156,-1.29297 0,-0.7062 0.49086,-1.2832 1.08984,-1.2832 0.59902,0 2.57609,-1.19341 4.39454,-2.65234 3.19116,-2.56033 3.23868,-2.78773 1.3457,-6.52149 -1.11772,-2.20471 -3.88318,-4.68735 -6.43164,-5.77344 -4.18058,-1.78166 -4.65193,-1.73427 -7.23633,0.74219 -3.30701,3.16883 -5.50425,3.32365 -9.24609,0.65039 -3.58659,-2.56191 -3.57101,-4.41677 0.0351,-4.43945 3.88188,-0.024 8.4961,-1.37133 8.4961,-2.48047 0,-0.5029 -2.40706,-2.02412 -5.34961,-3.38086 -3.64951,-1.68272 -5.47756,-3.38475 -5.75196,-5.35547 -0.46151,-3.31453 1.25613,-3.7806 3.54883,-0.96289 1.66976,2.05217 4.92646,2.39785 10.97461,1.16406 3.08085,-0.62849 3.63953,-1.28332 3.18164,-3.72656 -0.74664,-3.98385 3.68692,-5.48908 7.89063,-2.67969 1.67263,1.11788 3.85104,2.03125 4.83984,2.03125 2.0081,0 3.72114,-3.44101 2.61914,-5.25976 -1.50788,-2.48844 3.35227,-2.57333 7.2832,-0.12695 4.01212,2.49709 4.27486,2.50556 9.78711,0.28906 8.04548,-3.23513 8.33322,-7.1966 1.02539,-14.11914 -3.08666,-2.92392 -6.69792,-5.15455 -8.36718,-5.16211 -1.89838,-0.0104 -2.67919,-0.58373 -2.20508,-1.6211 0.40343,-0.88274 1.08433,-2.61573 1.51172,-3.85156 1.00316,-2.90101 2.74874,-2.82592 7.40625,0.32031 2.07707,1.40308 4.34278,2.55165 5.03515,2.55079 1.5868,-0.002 4.56399,-6.38646 3.66797,-7.86524 -0.36703,-0.60574 0.21625,-2.3863 1.29492,-3.95703 2.91746,-4.24853 2.40213,-7.63975 -1.89062,-12.43359 -3.84741,-4.29657 -3.8647,-4.30062 -13.41016,-3.67578 -11.27236,0.73785 -16.87666,-1.03883 -25.86328,-8.19922 -3.29397,-2.62458 -7.14952,-5.14814 -8.56836,-5.60743 -3.3374,-1.08041 -2.66241,-4.98034 0.95313,-5.50781 3.68194,-0.53714 10.30528,3.06262 14.6289,7.95117 l 3.54102,4.00391 -0.73438,-3.53125 c -0.44488,-2.14386 -0.19368,-3.53125 0.63672,-3.53125 3.64196,0 -4.76562,-14.85458 -9.43164,-16.66406 -4.58082,-1.77646 -4.66663,-3.0603 -0.54687,-8.15821 2.63236,-3.25734 3.29435,-4.85823 2.14258,-5.17382 -0.91737,-0.25153 -3.84854,-1.17574 -6.51368,-2.05274 -3.52588,-1.16035 -5.22231,-1.20802 -6.23047,-0.17969 -2.31724,2.36353 -5.74514,1.5892 -7.91406,-1.7871 -1.32769,-2.06681 -1.88218,-3.50572 -1.45117,-4.51172 l -0.16601,-1.33789 0.13085,-2.88282 1.57227,-1.96484 -0.6543,-2.62109 -1.57226,-1.04883 1.96484,-1.96485 6.81445,-1.83593 4.45508,0.91797 4.32422,0.52343 4.25977,-0.64843 1.11328,-4.19922 -2.88281,-2.09766 -4.84961,-2.0957 -4.19336,0.65429 -4.19336,-1.57226 1.70508,-2.22656 1.57226,-0.78711 0.52344,-1.96485 -3.53711,-1.70312 -4.19336,-0.91797 -2.35937,-1.70313 v -2.09765 -1.57227 l 0.39257,-0.52344 1.83594,-1.17968 2.22656,-0.26172 3.40821,-0.39453 1.83398,-0.78516 0.26172,-1.17969 -0.91797,-2.0957 -7.33789,-1.83594 -2.0957,-0.52343 -1.17969,-1.31055 v -2.35938 l -0.26172,-0.52343 0.39258,-0.65625 1.31055,-0.39258 3.14453,0.13086 2.09765,0.26172 1.57227,-0.52344 0.26172,-1.44141 -0.78711,-1.17969 -2.48828,-0.91601 -2.22852,-0.65625 -0.78516,-1.31055 0.26172,-1.70312 -0.13086,-1.04883 -1.96679,-1.70313 -1.17969,-1.04882 -0.6543,-0.91602 0.6543,-0.52539 1.17969,0.26172 0.65625,-0.6543 -0.26367,-0.91797 -1.83399,-1.17773 -1.17969,-1.44336 -0.78515,-1.96485 -0.29492,-0.6621 c -0.43099,-0.35812 -0.76028,-0.56163 -1,-0.58594 z"
       transform="scale(0.26458333)"
       sodipodi:nodetypes="ssscccccccscccccsssssssssssssssssssssssssscsssssssssccsssssssssssssssscsssssssssssssscssssssscccssscsssscssssssssssssssssssssscccssssssssssssssssssssssscccsscccsssssssssssssssssscccccsccssssssssssssssssssssscccssssssssssssssssssssssssssssssssscssssssccssssssssscsscssssssssssscccssscssscccccccccccccccccccccccccccccccccccccccccccccccccccccccccccs" />
  </g>
</svg>
