<?xml version="1.0" encoding="UTF-8" standalone="no"?>
<svg
   xmlns:dc="http://purl.org/dc/elements/1.1/"
   xmlns:cc="http://creativecommons.org/ns#"
   xmlns:rdf="http://www.w3.org/1999/02/22-rdf-syntax-ns#"
   xmlns:svg="http://www.w3.org/2000/svg"
   xmlns="http://www.w3.org/2000/svg"
   xmlns:sodipodi="http://sodipodi.sourceforge.net/DTD/sodipodi-0.dtd"
   xmlns:inkscape="http://www.inkscape.org/namespaces/inkscape"
   width="210mm"
   height="297mm"
   viewBox="0 0 210 297"
   version="1.1"
   id="svg1241"
   inkscape:version="1.0.2 (e86c8708, 2021-01-15)"
   sodipodi:docname="oregon-text+mountains.svg">
  <defs
     id="defs1235" />
  <sodipodi:namedview
     id="base"
     pagecolor="#ffffff"
     bordercolor="#666666"
     borderopacity="1.0"
     inkscape:pageopacity="0.0"
     inkscape:pageshadow="2"
     inkscape:zoom="0.35"
     inkscape:cx="400"
     inkscape:cy="560"
     inkscape:document-units="mm"
     inkscape:current-layer="layer1"
     inkscape:document-rotation="0"
     showgrid="false"
     inkscape:window-width="1252"
     inkscape:window-height="943"
     inkscape:window-x="0"
     inkscape:window-y="0"
     inkscape:window-maximized="0" />
  <metadata
     id="metadata1238">
    <rdf:RDF>
      <cc:Work
         rdf:about="">
        <dc:format>image/svg+xml</dc:format>
        <dc:type
           rdf:resource="http://purl.org/dc/dcmitype/StillImage" />
        <dc:title></dc:title>
      </cc:Work>
    </rdf:RDF>
  </metadata>
  <g
     inkscape:label="Layer 1"
     inkscape:groupmode="layer"
     id="layer1">
    <path
       style="fill:#333333;fill-opacity:1;stroke-width:0.336378"
       d="m 25.776216,117.55545 c 0.05008,-0.60725 0.107477,-1.28427 0.127558,-1.50448 0.07147,-0.78366 1.071185,-1.47195 1.848821,-1.27287 0.632307,0.16187 1.13163,-0.22194 2.879892,-2.21362 2.712693,-3.0904 4.050731,-5.78161 2.885062,-5.80276 -0.228984,-0.004 -0.04542,-0.29826 0.407913,-0.65356 0.453333,-0.35531 0.839867,-0.92519 0.858961,-1.26641 0.01908,-0.34121 0.07607,-1.15546 0.126609,-1.80942 l 0.0919,-1.18903 0.393635,1.29406 c 0.216496,0.71172 0.553326,1.39966 0.748503,1.52875 0.326908,0.2162 0.73179,1.04604 1.743586,3.57367 0.211557,0.5285 0.56985,0.89881 0.796205,0.82289 0.668624,-0.22424 1.935489,-2.73888 1.797227,-3.56736 -0.07016,-0.4204 -0.01516,-0.76437 0.122245,-0.76437 0.137397,0 0.360931,-0.57328 0.496739,-1.27396 l 0.246928,-1.27396 0.752887,1.63872 c 0.414088,0.9013 1.06905,1.93916 1.455474,2.30636 0.38642,0.3672 0.702583,0.95841 0.702583,1.3138 0,1.5246 1.05241,0.97949 1.458728,-0.75557 0.120073,-0.51273 0.40303,-0.89492 0.628792,-0.8493 0.244801,0.0495 0.410478,-0.29104 0.410478,-0.84362 0,-0.50962 0.147369,-0.93912 0.327488,-0.95446 0.350049,-0.0298 1.154215,2.73449 1.164886,4.00428 0.0035,0.42041 0.303887,1.03191 0.667449,1.35889 0.363562,0.32698 1.565601,1.48416 2.671195,2.57152 2.548122,2.50607 3.125805,2.47123 3.262462,-0.19677 0.07326,-1.43027 0.228634,-1.9501 0.582867,-1.9501 0.26564,0 0.482979,-0.28827 0.482979,-0.64061 0,-0.35233 0.226162,-1.07849 0.502581,-1.61368 0.491939,-0.95247 0.50686,-0.95689 0.704978,-0.20869 0.111318,0.4204 0.320766,0.76437 0.465437,0.76437 0.144671,0 0.184652,0.30575 0.08884,0.67945 -0.130838,0.51032 -0.01023,0.67944 0.484595,0.67944 0.526628,0 0.626205,0.17386 0.496366,0.86666 -0.107118,0.57153 0.06593,1.12102 0.508199,1.61368 0.368845,0.41086 0.989317,1.39468 1.378828,2.18627 0.722515,1.46834 2.626735,2.80728 3.992458,2.80728 0.698223,0 2.035841,-1.48096 2.035841,-2.25401 0,-0.56379 0.07647,-0.56845 1.149039,-0.07 0.533713,0.24804 0.965054,0.82872 1.165433,1.56893 0.174966,0.64633 0.573354,1.46282 0.885311,1.81442 0.554295,0.62473 0.297754,0.63926 -11.285842,0.63926 -11.560519,0 -11.858254,-0.0168 -12.064458,-0.67944 -0.234885,-0.75485 -0.671319,-0.88085 -1.025635,-0.2961 -0.158809,0.26209 -0.328284,0.20837 -0.535804,-0.16986 -0.425003,-0.77461 -0.768287,-0.69054 -1.209024,0.2961 -0.250166,0.56003 -0.649693,0.8493 -1.173007,0.8493 -0.665373,0 -0.768084,-0.13624 -0.635607,-0.8431 0.124643,-0.66506 -0.01978,-0.91206 -0.683855,-1.16959 -0.764088,-0.29631 -0.833995,-0.48367 -0.756641,-2.02797 0.07517,-1.50074 0.003,-1.71346 -0.611333,-1.80298 -0.54466,-0.0794 -0.719367,-0.3839 -0.801158,-1.39651 -0.115907,-1.43496 -0.820063,-1.57993 -1.006067,-0.20713 -0.06131,0.45249 -0.248657,0.96793 -0.416333,1.14543 -0.167672,0.17751 -0.304862,0.59791 -0.304862,0.93424 0,0.33632 -0.226592,0.6115 -0.503537,0.6115 -0.398067,0 -0.460381,0.27527 -0.297501,1.31422 0.16615,1.0598 0.08207,1.40507 -0.434329,1.78354 -0.352201,0.25813 -0.738202,0.73685 -0.857779,1.06384 -0.192759,0.52709 -0.742968,0.59451 -4.851822,0.59451 h -4.634409 z m 86.803204,-0.27655 c 0.16727,-0.75935 0.21744,-1.52373 0.11147,-1.69861 -0.10596,-0.17488 -0.0502,-0.31796 0.12396,-0.31796 0.17414,0 0.41607,-0.40417 0.53762,-0.89815 l 0.22101,-0.89816 0.53733,0.81323 c 0.29553,0.44727 0.5673,0.85681 0.60396,0.91009 0.0542,0.0788 3.73765,-3.65733 6.01115,-6.09705 0.41496,-0.44529 0.4475,-0.71453 0.15397,-1.27396 -0.2047,-0.39013 -0.55426,-0.7142 -0.7768,-0.72014 -0.25767,-0.007 -0.21557,-0.1611 0.11592,-0.42465 0.54463,-0.433 1.45004,-1.99636 1.79264,-3.09532 0.26327,-0.84449 0.60831,-0.46164 0.65073,0.72201 0.0257,0.71822 0.17924,0.91487 0.64998,0.83264 0.38407,-0.0671 0.53013,0.0345 0.38763,0.26973 -0.12577,0.20756 -0.005,0.72584 0.26876,1.15173 0.27359,0.4259 0.5488,1.14533 0.61158,1.59875 0.15906,1.1488 1.02918,1.03061 1.43392,-0.19478 0.18514,-0.56054 0.51975,-1.13787 0.74359,-1.28294 0.22383,-0.14508 0.32221,-0.48905 0.21863,-0.76438 -0.10359,-0.27533 -0.02,-0.5006 0.18565,-0.5006 0.2057,0 0.35197,-0.4204 0.32506,-0.93423 -0.0269,-0.51383 0.11109,-1.31643 0.30667,-1.78354 0.35226,-0.84135 0.35579,-0.83908 0.3767,0.24284 0.0143,0.73841 0.24205,1.21274 0.70326,1.4645 0.47297,0.25819 0.61912,0.57487 0.47663,1.0328 -0.13394,0.43044 -0.0236,0.73165 0.31706,0.86496 0.28741,0.11249 0.52486,0.37927 0.52766,0.59284 0.003,0.21357 0.14127,0.60779 0.30769,0.87605 0.25076,0.40421 0.39248,0.41163 0.82756,0.0433 0.28874,-0.24443 0.52499,-0.74174 0.52499,-1.10515 0,-0.5213 0.15097,-0.61186 0.71538,-0.42915 0.64695,0.20944 0.69648,0.13522 0.51783,-0.7759 -0.10865,-0.55412 -0.11241,-1.33953 -0.008,-1.74536 0.17803,-0.69439 0.21559,-0.70237 0.63731,-0.13544 0.24647,0.33133 0.45289,1.32858 0.45872,2.21611 0.006,0.92182 0.16474,1.61368 0.37013,1.61368 0.22305,0 0.27938,0.37219 0.14839,0.98049 -0.19204,0.89182 -0.0681,1.06848 1.37005,1.9534 0.86964,0.5351 2.14578,1.54619 2.83585,2.24687 1.25761,1.27693 1.9475,1.59677 1.9475,0.90289 0,-0.20409 0.30824,-0.77075 0.68496,-1.25925 0.44433,-0.57617 0.61762,-1.16188 0.49326,-1.66727 -0.15507,-0.63013 -0.0557,-0.77908 0.5196,-0.77908 0.54735,0 0.67117,-0.15663 0.53713,-0.67944 -0.0958,-0.3737 -0.0355,-0.67945 0.13403,-0.67945 0.16953,0 0.20858,-0.40499 0.0868,-0.89997 -0.15585,-0.63338 -0.1084,-0.82871 0.16019,-0.6594 0.2099,0.13232 0.38164,0.46088 0.38164,0.73012 0,0.26924 0.11241,0.48956 0.2498,0.4896 0.13739,3e-5 0.29607,0.80263 0.35261,1.78354 0.12367,2.14515 0.96805,3.67834 2.50776,4.55349 0.3367,0.19138 0.93921,0.94263 1.33892,1.66944 0.53233,0.96796 1.12594,1.47941 2.21889,1.91179 1.47009,0.58157 1.35182,0.58992 -8.00025,0.56463 -8.06498,-0.0218 -9.58004,-0.10464 -10.07526,-0.55086 -0.32057,-0.28885 -0.58286,-0.40633 -0.58286,-0.26107 0,0.14526 -0.21772,0.0798 -0.48382,-0.14544 -0.38767,-0.32818 -0.63179,-0.26894 -1.22853,0.29812 -0.4096,0.38923 -0.93244,0.70768 -1.16186,0.70768 -0.56452,0 -0.88185,-0.58114 -0.46189,-0.84588 0.66082,-0.41657 0.34691,-1.19245 -0.48245,-1.19245 -1.06212,0 -1.63449,-1.08789 -1.35938,-2.58369 0.18176,-0.98824 0.11994,-1.15326 -0.43204,-1.15326 -0.47469,0 -0.70275,-0.31855 -0.86687,-1.21084 -0.25625,-1.39325 -0.96243,-1.41647 -1.12255,-0.0369 -0.0635,0.54751 -0.31039,0.90804 -0.62171,0.90804 -0.35234,0 -0.461,0.21579 -0.34212,0.67945 0.11321,0.44159 0.0102,0.67944 -0.29422,0.67944 -0.49479,0 -0.62082,0.41076 -0.24397,0.79514 0.53369,0.54436 0.27286,2.0198 -0.44147,2.4972 -0.42068,0.28115 -0.66314,0.70544 -0.55992,0.97983 0.1524,0.40506 -0.60512,0.48394 -4.64762,0.48394 h -4.83007 z M 88.263655,38.147492 c -1.34654,-0.76441 -3.03891,-2.36435 -3.03411,-2.86838 0.003,-0.34573 0.80364,-1.10971 2.10286,-2.00733 0.53398,-0.36893 0.55558,-0.53592 0.1785,-1.38006 -0.395,-0.88426 -0.35835,-1.02232 0.46268,-1.74266 0.88188,-0.77371 0.88548,-0.79474 0.32795,-1.91348 -0.81196,-1.62924 -0.69103,-3.72891 0.28641,-4.97319 0.81525,-1.03781 1.03788,-1.1779 2.79463,-1.758451 1.1625,-0.384174 7.89532,-0.04405 7.63493,0.385701 -0.0962,0.15884 -0.8507,0.28879 -1.67658,0.28879 -1.41582,0 -1.48603,0.0437 -1.22934,0.76438 0.47594,1.3363 0.2318,3.53637 -0.51041,4.59954 -0.86197,1.23472 -2.58793,2.10997 -4.16075,2.10997 -0.64846,0 -1.25926,0.13245 -1.35735,0.29432 -0.40848,0.67415 1.18324,1.38926 4.52687,2.03377 4.32774,0.83421 5.604155,1.43298 5.604155,2.62894 0,1.38674 -0.576695,2.11907 -2.426695,3.08165 -1.47887,0.76948 -2.23103,0.91785 -5.06731,0.99959 -2.75834,0.0795 -3.52411,-0.0138 -4.45644,-0.5431 z m 8.20344,-1.98695 c 1.87122,-1.04154 -0.13866,-2.09582 -5.23944,-2.74833 -2.60647,-0.33344 -2.98785,-0.19648 -2.99885,1.07689 -0.006,0.72291 2.20766,2.20144 3.52618,2.35492 1.38024,0.16065 3.83532,-0.19545 4.71211,-0.68348 z m -2.76668,-8.28242 c 0.73106,-1.06459 0.65723,-3.59494 -0.144,-4.93531 -0.50967,-0.85262 -0.88869,-1.104097 -1.66409,-1.104097 -1.03422,0 -2.33636,1.007637 -2.33636,1.807957 0,0.81182 1.08078,3.78516 1.59643,4.39197 0.69811,0.82152 1.92681,0.74411 2.54802,-0.16052 z m 8.150065,5.41617 c -1.56222,-1.07382 -2.627705,-3.11415 -2.611495,-5.00085 0.0386,-4.49255 3.959225,-8.046217 7.075465,-6.413218 3.40546,1.784558 4.60874,6.833188 2.32399,9.750878 -1.90016,2.42657 -4.68476,3.10886 -6.78796,1.66319 z m 5.26402,-1.90866 c 1.28932,-1.95801 0.80433,-5.15338 -1.07278,-7.06799 -2.81458,-2.870843 -5.65744,0.21376 -4.36768,4.73909 0.72959,2.55983 1.84764,3.72458 3.44465,3.58851 0.97605,-0.0832 1.39542,-0.34783 1.99581,-1.25961 z m -52.748077,1.64441 c -1.695891,-0.85624 -2.960814,-2.64896 -3.475541,-4.92574 -0.756324,-3.34545 1.049166,-7.091467 4.157704,-8.626355 1.27679,-0.630436 1.68525,-0.672094 3.715063,-0.378892 1.254305,0.181181 2.663036,0.613142 3.130514,0.959914 3.270802,2.426253 3.00394,8.803713 -0.499682,11.941403 -0.672295,0.60208 -1.590163,1.23733 -2.039702,1.41166 -1.353269,0.52479 -3.521155,0.35878 -4.988356,-0.38199 z m 6.035833,-2.16236 c 2.441873,-1.04067 2.265944,-5.17281 -0.353117,-8.29374 -2.130966,-2.539303 -4.4505,-3.159917 -5.979878,-1.599975 -2.101762,2.143765 -0.05259,8.170835 3.307136,9.727045 1.660686,0.76922 1.617587,0.76684 3.025859,0.16667 z m 18.509329,2.4286 c -0.45041,-0.23248 -1.27475,-1.0842 -1.83186,-1.89272 -1.84938,-2.68393 -1.17138,-6.39083 1.58511,-8.66642 2.62141,-2.164089 6.89434,-0.64825 6.89434,2.44581 0,0.47632 -0.55131,0.65881 -3.03085,1.00325 -3.38878,0.47075 -4.29661,0.83279 -4.29661,1.71346 0,0.8918 1.52849,2.85703 2.75033,3.53621 1.57311,0.87443 2.42252,0.73669 3.91003,-0.63405 1.53886,-1.41804 1.70285,-1.18259 0.46767,0.67147 -1.3553,2.03436 -4.38123,2.88984 -6.44816,1.82299 z m 3.73326,-7.76695 c 0.78128,-0.42532 0.73512,-1.36322 -0.12178,-2.47437 -1.37373,-1.78131 -3.64135,-0.61713 -4.17154,2.14163 l -0.22096,1.14969 1.96571,-0.24982 c 1.08113,-0.1374 2.22799,-0.39261 2.54857,-0.56713 z m 39.385095,7.88488 -2.33147,-0.1948 -0.16653,-4.45023 c -0.11446,-3.05862 -0.30948,-4.62555 -0.62365,-5.0109 -0.59529,-0.73015 -2.65583,-0.7293 -3.67879,0.002 -0.76496,0.54651 -0.78088,0.65637 -0.57016,3.93589 0.24091,3.74956 0.47908,4.43279 1.80011,5.16402 0.84525,0.46787 0.6446,0.50235 -2.92271,0.50235 -3.55582,0 -3.76568,-0.0358 -2.92885,-0.49907 1.12756,-0.62428 1.32897,-1.65 1.19744,-6.09831 -0.0955,-3.22846 -0.13768,-3.40261 -0.84985,-3.50578 -1.10445,-0.15999 -0.91735,-0.56031 0.58478,-1.25121 0.7338,-0.337509 1.50155,-0.819352 1.70612,-1.070761 0.71017,-0.872814 1.34769,-0.537857 1.2314,0.64699 -0.12549,1.278501 0.1158,1.312121 3.55536,0.495371 2.1863,-0.519151 3.61717,-0.262345 4.14516,0.74395 0.16546,0.31534 0.37705,2.54872 0.47022,4.96306 0.17795,4.61178 0.41602,5.26324 1.92343,5.26324 0.32054,0 0.67545,0.15287 0.78865,0.33972 0.11323,0.18685 -0.0653,0.31273 -0.39667,0.27973 -0.33139,-0.033 -1.65169,-0.14765 -2.93399,-0.25479 z m -56.121684,-0.37934 c 0,-0.1015 0.48246,-0.33081 1.072135,-0.50958 1.312471,-0.39791 1.516254,-1.04168 1.55465,-4.9113 0.03554,-3.58189 -0.163962,-4.41639 -1.05581,-4.41639 -1.040483,0 -0.522468,-0.30305 1.377093,-0.80564 l 1.714862,-0.45372 v 1.47899 c 0,1.57666 0.758382,2.10863 1.16109,0.81446 0.23628,-0.75933 2.025806,-2.395572 2.611463,-2.387775 0.771129,0.01027 1.195319,0.540695 1.010111,1.263085 -0.148611,0.57964 -0.479346,0.75605 -1.569542,0.83715 -1.26502,0.0941 -1.444319,0.23032 -2.130656,1.61856 -0.889904,1.8 -1.001601,4.64507 -0.241247,6.14482 0.433396,0.85484 0.702894,1.00229 1.831866,1.00229 0.728043,0 1.323712,0.11466 1.323712,0.2548 0,0.14013 -1.948438,0.25479 -4.329863,0.25479 -2.381425,0 -4.329864,-0.083 -4.329864,-0.18454 z"
       id="path849" />
  </g>
</svg>
